<svg xmlns="http://www.w3.org/2000/svg" fill="none" viewBox="0 0 24 24">
  <g fill="#AE1332" filter="url(#a)">
    <path d="M18.541.157h-2.005a1.11 1.11 0 0 0-1.12 1.098v1.964a1.11 1.11 0 0 0 1.12 1.098h2.005a1.11 1.11 0 0 0 1.12-1.098V1.255a1.11 1.11 0 0 0-1.12-1.098ZM7.365 11.52H5.206C4.54 11.52 4 12.012 4 12.618v1.964c0 .607.54 1.098 1.206 1.098h2.16c.665 0 1.205-.491 1.205-1.098v-1.964c0-.607-.54-1.098-1.206-1.098ZM7.125 5.79H5.12C4.501 5.79 4 6.283 4 6.89v1.964a1.11 1.11 0 0 0 1.12 1.098h2.005a1.11 1.11 0 0 0 1.12-1.098V6.89c0-.607-.502-1.098-1.12-1.098ZM12.883 11.49h-2.005c-.618 0-1.12.49-1.12 1.097v1.964a1.11 1.11 0 0 0 1.12 1.098h2.005a1.11 1.11 0 0 0 1.12-1.098v-1.964c0-.607-.501-1.098-1.12-1.098ZM7.125.043H5.12C4.501.043 4 .535 4 1.141v1.964a1.11 1.11 0 0 0 1.12 1.098h2.005a1.11 1.11 0 0 0 1.12-1.098V1.141c0-.606-.502-1.098-1.12-1.098ZM13.038 5.849h-2.005c-.618 0-1.12.491-1.12 1.097v1.965a1.11 1.11 0 0 0 1.12 1.098h2.005c.619 0 1.12-.492 1.12-1.098V6.946c0-.606-.501-1.097-1.12-1.097ZM18.667 11.49h-2.005c-.619 0-1.12.49-1.12 1.097v1.964a1.11 1.11 0 0 0 1.12 1.098h2.005a1.11 1.11 0 0 0 1.12-1.098v-1.964c0-.607-.502-1.098-1.12-1.098ZM12.795.112h-2.004A1.11 1.11 0 0 0 9.67 1.21v1.964a1.11 1.11 0 0 0 1.12 1.098h2.004a1.11 1.11 0 0 0 1.12-1.098V1.21a1.11 1.11 0 0 0-1.12-1.098ZM18.522 5.963h-2.005c-.618 0-1.12.491-1.12 1.098v1.964a1.11 1.11 0 0 0 1.12 1.098h2.005a1.11 1.11 0 0 0 1.12-1.098V7.061c0-.607-.502-1.098-1.12-1.098Z"/>
  </g>
  <defs>
    <filter id="a" width="24" height="24" x="0" y="0" color-interpolation-filters="sRGB" filterUnits="userSpaceOnUse">
      <feFlood flood-opacity="0" result="BackgroundImageFix"/>
      <feColorMatrix in="SourceAlpha" result="hardAlpha" values="0 0 0 0 0 0 0 0 0 0 0 0 0 0 0 0 0 0 127 0"/>
      <feOffset dy="4"/>
      <feGaussianBlur stdDeviation="2"/>
      <feComposite in2="hardAlpha" operator="out"/>
      <feColorMatrix values="0 0 0 0 0 0 0 0 0 0 0 0 0 0 0 0 0 0 0.25 0"/>
      <feBlend in2="BackgroundImageFix" result="effect1_dropShadow_107_90"/>
      <feBlend in="SourceGraphic" in2="effect1_dropShadow_107_90" result="shape"/>
    </filter>
  </defs>
</svg>